PathFileType	4	(X/Y/Z)	s10c0401.trc
DataRate	CameraRate	NumFrames	NumMarkers	Units	OrigDataRate	OrigDataStartFrame	OrigNumFrames
200	200	4	50	mm	200	0	2000
Frame#	Time	racr			lacr			c7			jug			rlel			rdr			llel			ldr			s2			lic			ric			lasi			rasi			rpsi			lpsi			rgt			lgt			rth1			rth2			rth3			rth4			rlfc			rmfc			rsh1			rsh2			rsh3			rsh4			rlmal			rmmal			rcal			rtoe			rmt5			lth1			lth2			lth4			lth3			llfc			lmfc			llmal			lmmal			lcal			lmt5			lsh1			lsh2			lsh3			lsh4			ltoe			SBIKE			LBIKE			RBIKE			
		X1	Y1	Z1	X2	Y2	Z2	X3	Y3	Z3	X4	Y4	Z4	X5	Y5	Z5	X6	Y6	Z6	X7	Y7	Z7	X8	Y8	Z8	X9	Y9	Z9	X10	Y10	Z10	X11	Y11	Z11	X12	Y12	Z12	X13	Y13	Z13	X14	Y14	Z14	X15	Y15	Z15	X16	Y16	Z16	X17	Y17	Z17	X18	Y18	Z18	X19	Y19	Z19	X20	Y20	Z20	X21	Y21	Z21	X22	Y22	Z22	X23	Y23	Z23	X24	Y24	Z24	X25	Y25	Z25	X26	Y26	Z26	X27	Y27	Z27	X28	Y28	Z28	X29	Y29	Z29	X30	Y30	Z30	X31	Y31	Z31	X32	Y32	Z32	X33	Y33	Z33	X34	Y34	Z34	X35	Y35	Z35	X36	Y36	Z36	X37	Y37	Z37	X38	Y38	Z38	X39	Y39	Z39	X40	Y40	Z40	X41	Y41	Z41	X42	Y42	Z42	X43	Y43	Z43	X44	Y44	Z44	X45	Y45	Z45	X46	Y46	Z46	X47	Y47	Z47	X48	Y48	Z48	X49	Y49	Z49	X50	Y50	Z50	
0	0.0000	364.510581	1319.531680	-51.303324	363.658809	1312.986984	-389.761174	344.552726	1366.729429	-219.912479	358.968682	1224.900715	-213.644584	459.649172	1074.807120	7.653684	623.543946	914.606906	-35.640707	442.906607	1060.492715	-474.784803	619.045809	913.665980	-427.094337	-122.614206	1087.840085	-214.349720	34.263170	1110.504176	-372.300645	54.624534	1119.049304	-74.497642	73.656131	1024.617381	-340.980644	58.585309	1029.696444	-87.403746	-85.240953	1140.015185	-159.340054	-82.006291	1146.364700	-269.556148	-48.997784	998.117576	-24.059747	-57.383194	971.763749	-407.696134	52.622104	900.572845	2.462511	140.634334	889.583883	-5.655982	208.047496	836.612994	-10.183272	153.263240	924.131911	-15.129436	315.894690	790.498734	-28.209306	313.989947	785.083292	-145.385286	268.247172	683.304440	-7.338928	273.236923	595.893774	-25.032195	234.587720	519.360386	-36.418169	303.553680	594.872825	-49.482542	212.038027	420.009340	-59.957423	235.011895	442.163890	-138.066986	160.201029	396.057564	-108.049058	402.338665	384.517278	-105.178935	321.711302	354.999451	-43.208584	18.357515	868.853014	-431.513562	96.116035	829.509408	-428.515265	120.526363	855.819645	-419.683717	143.578634	754.183283	-428.819109	221.342582	668.884049	-417.745755	232.336520	662.654405	-296.663480	-55.579308	416.356309	-376.650434	-41.974942	417.386827	-295.217755	-117.708045	417.443827	-328.488879	-1.552731	288.192217	-399.490835	121.880705	594.264859	-434.391460	86.204109	516.618156	-412.449651	11.555484	468.651981	-400.940872	109.644052	501.936031	-386.287708	85.383559	268.620122	-347.273391	-218.124970	834.832806	-214.454522	-104.105493	81.668789	-417.345758	-103.610816	81.243503	-18.004349	
1	0.0050	364.610433	1319.501960	-51.321810	363.694847	1313.007208	-389.694371	344.620746	1366.699274	-219.874016	359.005801	1224.879309	-213.618980	459.616059	1074.754934	7.753359	623.527336	914.582335	-35.612259	442.983118	1060.541861	-474.760707	619.053506	913.652756	-427.067403	-122.585149	1087.869855	-214.314867	34.246049	1110.522701	-372.270364	54.669846	1119.070744	-74.472304	73.608083	1024.640972	-340.970471	58.631147	1029.726316	-87.375217	-85.150787	1140.054600	-159.344647	-81.969157	1146.400690	-269.523093	-49.029079	998.200170	-24.015280	-57.489113	971.838433	-407.703829	52.631458	900.824509	2.467713	140.603189	890.008642	-5.650859	208.182388	837.185067	-10.146553	153.183237	924.633481	-15.155060	316.120268	791.171946	-28.230879	314.210505	785.712477	-145.373806	268.442498	683.957890	-7.336168	273.374241	596.558189	-25.056598	234.693079	519.944208	-36.391447	303.776274	595.459943	-49.435630	212.068223	420.674776	-59.957140	235.129512	442.893244	-138.102276	160.265414	397.023822	-107.986074	402.329303	384.954088	-105.234887	321.695966	355.558275	-43.223095	18.131703	868.809024	-431.527934	95.855616	829.387283	-428.493527	120.291748	855.691381	-419.713375	143.266888	754.051144	-428.818357	220.951974	668.727703	-417.737356	231.911810	662.513242	-296.719573	-55.583571	415.830455	-376.642357	-41.972909	416.809920	-295.228496	-117.697499	416.849612	-328.471347	-1.495837	287.652470	-399.494954	121.575340	593.995630	-434.392177	85.989371	516.272830	-412.446197	11.414863	468.207773	-400.958983	109.379921	501.582506	-386.151328	85.512054	268.217755	-347.271056	-218.122011	834.828557	-214.447123	-104.085162	81.698092	-417.373629	-103.604747	81.235019	-18.014201	
2	0.0100	364.695141	1319.465427	-51.332925	363.754816	1313.012772	-389.631157	344.670281	1366.673725	-219.845856	359.038217	1224.873969	-213.608853	459.604666	1074.702622	7.851226	623.543407	914.587102	-35.530434	443.049666	1060.576458	-474.744030	619.059604	913.644598	-427.040662	-122.582638	1087.924584	-214.261453	34.251872	1110.569540	-372.242460	54.708138	1119.097242	-74.429605	73.535602	1024.676202	-340.946519	58.664782	1029.743535	-87.333275	-85.096379	1140.073895	-159.342056	-81.916079	1146.433723	-269.498799	-49.080043	998.297435	-23.963565	-57.580732	971.907274	-407.705777	52.594188	901.076043	2.490203	140.612651	890.335264	-5.663620	208.233794	837.645683	-10.112035	153.126482	925.031021	-15.188924	316.307440	791.761913	-28.190741	314.463486	786.356329	-145.376636	268.661873	684.596314	-7.357566	273.489230	597.114330	-25.040331	234.756559	520.650928	-36.413250	303.894740	596.047511	-49.501093	212.067882	421.438397	-59.944051	235.151601	443.501614	-138.101651	160.259594	397.666665	-108.078989	402.329280	385.381205	-105.227074	321.654045	356.122112	-43.224880	17.902706	868.811307	-431.539991	95.617191	829.298112	-428.512860	120.085523	855.584456	-419.710560	142.934496	753.951104	-428.839342	220.563469	668.608986	-417.778182	231.521957	662.353974	-296.748329	-55.594030	415.277549	-376.598627	-41.985253	416.302191	-295.201238	-117.671185	416.223776	-328.445357	-1.408747	287.079902	-399.494062	121.249146	593.769193	-434.391170	85.800048	515.998660	-412.485974	11.291254	467.794469	-400.920595	109.213254	501.288257	-386.190778	85.569232	267.697122	-347.222388	-218.127425	834.829096	-214.430405	-104.088067	81.725634	-417.381210	-103.592559	81.243166	-17.999653	
3	0.0150	364.772085	1319.406508	-51.319431	363.789949	1313.011241	-389.573099	344.837835	1366.754508	-219.974534	359.071601	1224.856866	-213.573342	459.602219	1074.634856	7.965439	623.543360	914.597174	-35.450219	443.105662	1060.603627	-474.721364	619.054143	913.661895	-427.033012	-122.570601	1087.968669	-214.215866	34.228618	1110.604873	-372.224483	54.762579	1119.478199	-74.198422	73.493772	1024.719170	-340.946478	58.752512	1029.820552	-87.017114	-85.036339	1140.102075	-159.308022	-81.913817	1146.483844	-269.435587	-49.122500	998.393553	-23.927987	-57.685458	971.994610	-407.707682	52.601461	901.311411	2.495481	140.628183	890.676788	-5.652918	208.441214	838.159100	-10.095556	153.085974	925.368209	-15.219162	316.758973	792.546110	-27.287775	314.696245	786.942138	-145.398507	268.868812	685.174695	-7.373641	273.704088	597.870281	-25.449031	234.922212	521.246816	-36.432567	304.058711	596.621682	-49.476843	211.944370	422.113784	-59.873218	235.275333	443.845252	-138.257783	160.242172	398.277350	-108.029766	402.322254	385.843280	-105.234388	321.605331	356.601171	-43.227001	17.693870	868.784912	-431.528977	95.395846	829.220834	-428.515266	119.872705	855.691979	-419.936514	143.185905	754.232769	-428.943293	220.190839	668.426995	-417.792939	230.978409	662.285297	-296.672542	-55.583473	414.757654	-376.607771	-41.967792	415.818114	-295.193486	-117.651782	415.718228	-328.463371	-1.320824	286.592627	-399.484279	121.200964	593.744003	-434.325775	84.888799	514.724630	-412.540101	11.058206	467.601376	-400.783641	109.224920	501.140121	-386.720408	85.635159	267.197963	-347.236478	-218.130434	834.826066	-214.443099	-104.077710	81.699718	-417.373386	-103.597917	81.242408	-18.007912	
